<svg xmlns="http://www.w3.org/2000/svg" viewBox="0 0 320 320" role="img"><rect width="320" height="320" fill="#f1ebe3"/><ellipse cx="160" cy="276" rx="92" ry="10" fill="#000" opacity=".08"/><path d="M112 70 L78 112 L56 250 L84 254 L104 150 Z" fill="#b08968" stroke="#1f2937" stroke-width="3" stroke-linejoin="round" stroke-linecap="round"/><path d="M208 70 L242 112 L264 250 L236 254 L216 150 Z" fill="#b08968" stroke="#1f2937" stroke-width="3" stroke-linejoin="round" stroke-linecap="round"/><path d="M116 66 L204 66 L228 108 L232 270 L88 270 L92 108 Z" fill="#b08968" stroke="#1f2937" stroke-width="3" stroke-linejoin="round" stroke-linecap="round"/><path d="M116 66 L160 150 L204 66" fill="#9c7556" stroke="#1f2937" stroke-width="3" stroke-linejoin="round" stroke-linecap="round"/><path d="M160 150 L160 270" stroke="#1f2937" stroke-width="3" stroke-linejoin="round" stroke-linecap="round" fill="none"/><circle cx="172" cy="182" r="5" fill="#1f2937"/><circle cx="172" cy="218" r="5" fill="#1f2937"/><path d="M104 200 L132 200 M188 200 L216 200" stroke="#1f2937" stroke-width="3" stroke-linejoin="round" stroke-linecap="round" fill="none"/></svg>
